<?xml version="1.0" encoding="UTF-8"?>
<svg version="1.1" xmlns="http://www.w3.org/2000/svg" width="1000" height="1000">
<path d="M0 0 C330 0 660 0 1000 0 C1000 330 1000 660 1000 1000 C670 1000 340 1000 0 1000 C0 670 0 340 0 0 Z " fill="#FECA31" transform="translate(0,0)"/>
<path d="M0 0 C80.19 0 160.38 0 243 0 C242.32723332 6.72766679 241.55912087 12.44843171 239.75 18.8125 C239.29344677 20.48249311 238.83909648 22.15308972 238.38671875 23.82421875 C238.1551709 24.67806152 237.92362305 25.5319043 237.68505859 26.41162109 C236.56820149 30.63147818 235.56207946 34.8760811 234.5625 39.125 C234.25638794 40.42352905 234.25638794 40.42352905 233.9440918 41.74829102 C233.51835438 43.55574134 233.09298791 45.36327908 232.66796875 47.17089844 C231.48040541 52.20068061 230.27052137 57.2250995 229.0625 62.25 C228.55336589 64.36978698 228.04425142 66.48957867 227.53515625 68.609375 C227.28137207 69.66576172 227.02758789 70.72214844 226.76611328 71.81054688 C225.50994607 77.04017352 224.2550285 82.27009999 223 87.5 C222.50000616 89.58333481 222.00000615 91.66666814 221.5 93.75 C221.12875 95.296875 221.12875 95.296875 220.75 96.875 C196 200 171.25 303.125 139.75 434.37475586 C139.24985227 436.45886755 138.74985235 438.54301471 138.25 440.62719727 C137.0034677 445.82392225 135.75440347 451.02001271 134.5 456.21484375 C131.98290286 466.65136802 129.51260515 477.09556004 127.125 487.5625 C124.53418185 498.89851726 121.73421008 510.17594496 118.89550781 521.45166016 C116.38944745 531.40945359 113.97397398 541.38565762 111.61962891 551.38037109 C110.44652927 556.33992947 109.25336295 561.29468272 108.0625 566.25 C107.55338475 568.36979151 107.04427017 570.48958317 106.53515625 572.609375 C106.15447998 574.19395508 106.15447998 574.19395508 105.76611328 575.81054688 C104.50994607 581.04017352 103.2550285 586.27009999 102 591.5 C101.50000616 593.58333481 101.00000615 595.66666814 100.5 597.75 C100.12875 599.296875 100.12875 599.296875 99.75 600.875 C75 704 50.25 807.125 18.74975586 938.37597656 C18.25054503 940.45604878 17.75135877 942.53612689 17.25219727 944.61621094 C15.99032595 949.87448841 14.72800703 955.13265773 13.46484375 960.390625 C10.29439099 973.59008157 7.13858871 986.79292983 4 1000 C2.68 1000 1.36 1000 0 1000 C0 670 0 340 0 0 Z " fill="#3D3D3B" transform="translate(0,0)"/>
<path d="M0 0 C1.60019989 -0.01073296 1.60019989 -0.01073296 3.23272705 -0.02168274 C4.39286819 -0.02437164 5.55300934 -0.02706055 6.74830627 -0.02983093 C7.97810211 -0.03640213 9.20789795 -0.04297333 10.47496033 -0.04974365 C14.54207099 -0.06944562 18.60914234 -0.08113469 22.67628479 -0.09111023 C24.07937705 -0.09516011 25.48246912 -0.0992771 26.88556099 -0.10346031 C33.47539038 -0.12248981 40.06520868 -0.1367285 46.65506023 -0.14507228 C54.25287932 -0.15485265 61.85040771 -0.18120208 69.44812435 -0.22157317 C75.32852753 -0.25174415 81.20884737 -0.26654185 87.08932644 -0.26985329 C90.59843411 -0.2722016 94.10723039 -0.28113377 97.61625481 -0.30631447 C101.53015827 -0.33395022 105.443679 -0.32976102 109.35768127 -0.32279968 C110.51579819 -0.33560974 111.6739151 -0.3484198 112.86712646 -0.36161804 C119.09646745 -0.32117806 122.89099527 -0.05900218 127.61769104 4.14717102 C129.6135406 6.28893125 130.66121337 8.38898697 131.61769104 11.14717102 C131.1801153 19.21342571 129.24772789 27.03223493 127.49269104 34.89717102 C127.17744408 36.32521736 126.86225965 37.75327751 126.5471344 39.18135071 C124.26865758 49.45509997 121.82796765 59.68556393 119.31886292 69.9054718 C116.8966893 79.83017986 114.68098469 89.79377322 112.49269104 99.77217102 C110.12926214 110.54090338 107.65661172 121.25006074 104.75831604 131.88935852 C101.97729421 142.12944406 99.66752774 152.50374921 97.32081604 162.85029602 C94.23374429 176.43164388 90.94935305 189.95231067 87.55519104 203.45967102 C87.33557709 204.33372589 87.11596313 205.20778076 86.88969421 206.10832214 C86.67175201 206.97571014 86.45380981 207.84309814 86.22926331 208.73677063 C82.80074845 222.38424209 79.45349943 236.04493463 76.34034729 249.76826477 C73.24539139 263.37666224 69.95620328 276.92502092 66.55519104 290.45967102 C66.33524475 291.33505524 66.11529846 292.21043945 65.88868713 293.11235046 C65.67035217 293.98130951 65.45201721 294.85026855 65.22706604 295.74555969 C61.72464704 309.68731287 58.34315202 323.65030954 55.11769104 337.65888977 C51.71927796 352.38065854 48.17496028 367.05631888 44.49269104 381.70967102 C44.27484955 382.57663605 44.05700806 383.44360107 43.83256531 384.33683777 C43.61671783 385.19584686 43.40087036 386.05485596 43.17848206 386.93989563 C39.76679938 400.51960664 36.43805226 414.1130285 33.34034729 427.76826477 C30.24539141 441.37666216 26.95621008 454.92502252 23.55519104 468.45967102 C23.33557709 469.33372589 23.11596313 470.20778076 22.88969421 471.10832214 C22.67175201 471.97571014 22.45380981 472.84309814 22.22926331 473.73677063 C18.80074845 487.38424209 15.45349943 501.04493463 12.34034729 514.76826477 C9.24539141 528.37666216 5.95621008 541.92502252 2.55519104 555.45967102 C2.33557709 556.33372589 2.11596313 557.20778076 1.88969421 558.10832214 C1.67175201 558.97571014 1.45380981 559.84309814 1.22926331 560.73677063 C-2.19925155 574.38424209 -5.54650057 588.04493463 -8.65965271 601.76826477 C-11.92592137 616.12806613 -15.42339432 630.4156368 -19.04292297 644.68992615 C-22.0566564 656.5807796 -24.92737493 668.47203639 -27.22996521 680.52583313 C-29.26982286 690.46273648 -32.66704849 700.19822224 -41.35496521 706.06123352 C-45.55534348 708.31114712 -48.9729751 709.39722334 -53.75788879 709.40786743 C-54.82324356 709.41495224 -55.88859833 709.42203705 -56.98623657 709.42933655 C-58.72409172 709.42562042 -58.72409172 709.42562042 -60.49705505 709.42182922 C-61.7252446 709.42694016 -62.95343414 709.43205109 -64.21884155 709.43731689 C-67.58055996 709.44882501 -70.94203158 709.45128805 -74.30375242 709.4487536 C-77.1142589 709.44768217 -79.92474277 709.45257172 -82.73524439 709.45735902 C-89.36859309 709.46844672 -96.00188517 709.46889601 -102.63523865 709.46284485 C-109.46820395 709.45680721 -116.30096322 709.46911229 -123.13389337 709.49041492 C-129.00922751 709.50805558 -134.88449623 709.51402833 -140.75985587 709.51077718 C-144.26500847 709.50896782 -147.77001415 709.51156538 -151.27514267 709.52549171 C-155.18643463 709.54045075 -159.09746617 709.53107835 -163.0087738 709.51948547 C-164.16329544 709.52712921 -165.31781708 709.53477295 -166.50732422 709.54264832 C-173.38991694 709.49757184 -178.9188771 709.17503944 -184.30809021 704.46357727 C-184.7657074 703.88478821 -185.22332458 703.30599915 -185.69480896 702.70967102 C-186.16531677 702.13346008 -186.63582458 701.55724915 -187.12059021 700.96357727 C-190.9754912 695.41395201 -191.09056659 690.48608082 -190.01853943 683.9186554 C-189.50586907 681.56171682 -188.92608544 679.23177414 -188.31980896 676.89717102 C-187.85733104 675.03785529 -187.39510568 673.17847672 -186.93309021 671.31904602 C-186.68252869 670.32582336 -186.43196716 669.33260071 -186.17381287 668.3092804 C-184.74434296 662.59845551 -183.38234159 656.87129571 -182.00730896 651.14717102 C-181.40616444 648.65748673 -180.80459733 646.16790444 -180.20262146 643.67842102 C-178.42753499 636.33506866 -176.65469142 628.99117641 -174.88230896 621.64717102 C-174.29898624 619.23050179 -173.71565289 616.81383513 -173.13230896 614.39717102 C-172.84355896 613.20092102 -172.55480896 612.00467102 -172.25730896 610.77217102 C-155.63230896 541.89717102 -155.63230896 541.89717102 -154.75730896 538.27241516 C-154.17382714 535.85497053 -153.59049388 533.43749003 -153.00730896 531.01997375 C-151.55246163 524.9899076 -150.09506458 518.9604803 -148.63230896 512.93232727 C-146.0118949 502.1221131 -143.41057204 491.30935181 -140.90916443 480.47090149 C-137.83163453 467.13851919 -134.59195837 453.85490104 -131.25730896 440.58467102 C-131.03928619 439.7169809 -130.82126343 438.84929077 -130.59663391 437.95530701 C-130.38080658 437.09637848 -130.16497925 436.23744995 -129.94261169 435.35249329 C-126.53108732 421.77343467 -123.20252164 408.18065872 -120.10496521 394.52607727 C-117.01000933 380.91767988 -113.720828 367.36931952 -110.31980896 353.83467102 C-110.10019501 352.96061615 -109.88058105 352.08656128 -109.65431213 351.1860199 C-109.43636993 350.3186319 -109.21842773 349.4512439 -108.99388123 348.55757141 C-104.69496795 331.44541096 -100.64145303 314.28692303 -96.68431091 297.09272766 C-93.05999578 281.37421789 -89.36909498 265.67814334 -85.2040863 250.09321594 C-82.98700681 241.75391333 -81.0208652 233.35797454 -79.04588318 224.95869446 C-77.87985124 220.01828833 -76.6931783 215.08284635 -75.50730896 210.14717102 C-75.25787537 209.10834778 -75.00844177 208.06952454 -74.75144958 206.9992218 C-72.82112588 198.96394395 -70.88397478 190.93031903 -68.94480896 182.89717102 C-68.65235291 181.6853717 -68.35989685 180.47357239 -68.05857849 179.22505188 C-66.58506714 173.12148526 -65.10901637 167.01855006 -63.62840271 160.91670227 C-61.00940097 150.11167131 -58.40936447 139.30411947 -55.90916443 128.47090149 C-52.83163453 115.13851919 -49.59195837 101.85490104 -46.25730896 88.58467102 C-46.03928619 87.7169809 -45.82126343 86.84929077 -45.59663391 85.95530701 C-45.38080658 85.09637848 -45.16497925 84.23744995 -44.94261169 83.35249329 C-42.80255941 74.83433769 -40.66359304 66.31710034 -38.63230896 57.77217102 C-38.44708679 56.99953918 -38.26186462 56.22690735 -38.07102966 55.43086243 C-36.97009663 50.79048571 -35.95092576 46.1374596 -34.96434021 41.47138977 C-34.71200623 40.30849426 -34.45967224 39.14559875 -34.19969177 37.94746399 C-33.71349564 35.7010869 -33.24164181 33.45153326 -32.7875824 31.19844055 C-30.35096176 20.04192501 -25.03730926 10.52370228 -15.55809021 3.86592102 C-10.4333108 0.75325673 -5.89658962 0.02726748 0 0 Z " fill="#3D3D3B" transform="translate(452.38230895996094,140.8528289794922)"/>
<path d="M0 0 C0.75772176 -0.00367669 1.51544352 -0.00735338 2.29612654 -0.01114148 C4.84868483 -0.02220151 7.40120244 -0.02602606 9.95378113 -0.02983093 C11.77845388 -0.03609379 13.60312535 -0.04274043 15.42779541 -0.04974365 C20.39479199 -0.06716891 25.36177894 -0.07770939 30.32879853 -0.08594918 C33.43012488 -0.09109569 36.53144822 -0.09717155 39.63277245 -0.10346031 C49.33065254 -0.12251592 59.028525 -0.13674675 68.72642022 -0.14507228 C79.93126972 -0.15484963 91.13592192 -0.18118063 102.34070188 -0.22157317 C110.99467827 -0.25170271 119.648598 -0.26653811 128.30262583 -0.26985329 C133.47447146 -0.27220724 138.6461064 -0.28121238 143.81789589 -0.30631447 C148.68277936 -0.32954516 153.54731268 -0.33384862 158.41223717 -0.32355309 C160.19847654 -0.32305641 161.98473285 -0.32941561 163.7709198 -0.34310913 C166.20862338 -0.36075278 168.64506009 -0.3537599 171.08276367 -0.34057617 C171.79055161 -0.35154542 172.49833954 -0.36251466 173.2275756 -0.37381631 C177.98692159 -0.31162113 180.38526403 0.78821778 183.7318573 4.14717102 C184.75505066 6.13227844 184.75505066 6.13227844 185.32170105 8.25263977 C185.54535339 9.05798157 185.76900574 9.86332336 185.99943542 10.69306946 C186.22050964 11.56479797 186.44158386 12.43652649 186.6693573 13.33467102 C186.91750183 14.25667297 187.16564636 15.17867493 187.42131042 16.12861633 C190.13770288 26.36127357 192.57130052 36.66815186 194.98625183 46.97529602 C195.95521947 51.09737447 196.94245182 55.21493623 197.93254089 59.33198547 C198.42287 61.37177405 198.91148332 63.41197584 199.39836121 65.45259094 C200.63032413 70.60895841 201.8798432 75.75996655 203.16894531 80.90238953 C203.663617 82.87812699 204.15445227 84.85478074 204.64421082 86.83174133 C205.27125246 89.35771887 205.9054979 91.88192253 206.54801941 94.40400696 C210.20006997 109.19393408 210.20006997 109.19393408 207.7084198 114.20576477 C202.90592898 119.1054158 202.90592898 119.1054158 197.87929153 119.28418541 C196.16092094 119.29497168 194.44251002 119.3001131 192.72410583 119.30107117 C191.30681643 119.30764455 191.30681643 119.30764455 189.86089492 119.31435072 C186.67497678 119.32777211 183.48908632 119.33392506 180.30314636 119.34004211 C178.02689996 119.34794042 175.75065482 119.3562092 173.47441101 119.36482239 C165.98211366 119.39107286 158.48981063 119.40635256 150.9974823 119.42060852 C148.42149095 119.42596686 145.84549963 119.43134437 143.26950836 119.43674088 C132.55678859 119.4583736 121.84407209 119.477263 111.13133621 119.48836327 C108.35071559 119.49129301 105.57009501 119.49425466 102.78947449 119.49726868 C101.75279785 119.49838775 101.75279785 119.49838775 100.69517824 119.49952944 C89.49925728 119.5121833 78.30349512 119.5454062 67.1076484 119.58707051 C55.61532146 119.62948784 44.12310049 119.65265039 32.6306932 119.65828383 C26.17720126 119.66194285 19.72397845 119.67402303 13.27056122 119.70638657 C7.19993307 119.73639353 1.12973794 119.74280512 -4.94094849 119.73100281 C-7.17022564 119.73078146 -9.39952246 119.73913677 -11.62873077 119.75665665 C-14.67049758 119.77926308 -17.71068291 119.77109221 -20.75245667 119.75517273 C-22.07824474 119.77599586 -22.07824474 119.77599586 -23.43081641 119.79723966 C-27.68580412 119.74230543 -30.42562693 119.45664845 -33.80037308 116.73417091 C-36.94062086 113.44220208 -37.53657568 111.81702921 -37.46443176 107.29756165 C-37.06209092 102.88982767 -35.78531658 98.66072694 -34.6431427 94.39717102 C-32.33880856 85.51451155 -30.2172934 76.61442716 -28.2681427 67.64717102 C-26.17091714 58.03711685 -23.9038574 48.48920703 -21.45002747 38.96406555 C-20.16138029 33.91175716 -18.97921012 28.86191806 -17.9556427 23.74873352 C-17.74431702 22.70491516 -17.53299133 21.6610968 -17.31526184 20.58564758 C-16.92086917 18.60373362 -16.54142116 16.61876186 -16.18000793 14.63056946 C-15.01018977 8.76827527 -13.57483726 5.35181121 -9.2681427 1.14717102 C-6.29433654 -0.33973206 -3.26115229 -0.0008415 0 0 Z " fill="#3D3D3B" transform="translate(611.2681427001953,730.8528289794922)"/>
<path d="M0 0 C0.639375 -0.01289063 1.27875 -0.02578125 1.9375 -0.0390625 C5.22691232 1.02002859 6.76851827 3.02691925 9 5.625 C9.96045621 8.18386915 10.656014 10.43801702 11.24609375 13.07421875 C11.4224234 13.79529312 11.59875305 14.51636749 11.78042603 15.2592926 C12.3499087 17.60662381 12.89383501 19.95906824 13.4375 22.3125 C13.83045197 23.95380986 14.22491627 25.59475835 14.62084961 27.23535156 C15.77117889 32.02642649 16.88962573 36.82453078 18 41.625 C18.28520508 42.85234863 18.57041016 44.07969727 18.86425781 45.34423828 C19.83819042 49.5462563 20.80710195 53.74930389 21.76147461 57.95581055 C23.87513041 67.23543433 26.19109626 76.4606176 28.52078247 85.68762207 C30.78032572 94.64494036 32.95540443 103.61571545 35 112.625 C37.22596456 122.42982562 39.60808462 132.18799293 42.0625 141.9375 C45.59427903 155.97276929 49.05686726 170.01983975 52.25 184.13671875 C52.70792263 186.15373912 53.16627271 188.17066248 53.625 190.1875 C53.97751831 191.74223022 53.97751831 191.74223022 54.3371582 193.32836914 C56.05173124 200.78371455 57.89567182 208.19872941 59.79296875 215.609375 C60.29410832 217.57609043 60.79524764 219.54280593 61.29638672 221.50952148 C62.28723734 225.39508905 63.29245639 229.27657726 64.30517578 233.15649414 C69.94037539 255.01644875 69.94037539 255.01644875 69 261.625 C66.9675574 264.17912776 65.75968788 265.47080905 62.5199585 266.12836456 C61.58492493 266.12987267 60.64989136 266.13138077 59.68652344 266.13293457 C58.07142883 266.14985352 58.07142883 266.14985352 56.42370605 266.16711426 C55.24747681 266.15901733 54.07124756 266.15092041 52.859375 266.14257812 C50.99545105 266.15309204 50.99545105 266.15309204 49.09387207 266.16381836 C45.68864814 266.17840873 42.28439618 266.17498748 38.87922668 266.16230202 C35.31497902 266.15217116 31.75077274 266.16156792 28.18652344 266.16784668 C22.20109606 266.17512288 16.21586614 266.16553627 10.23046875 266.14648438 C3.31161042 266.12471546 -3.60677642 266.13176687 -10.52562332 266.15379 C-16.46715962 266.17194495 -22.40855402 266.17450193 -28.3501091 266.16403532 C-31.89823891 266.15780082 -35.44614714 266.15696329 -38.9942627 266.17018127 C-42.94948641 266.18388678 -46.90418248 266.16488835 -50.859375 266.14257812 C-52.03560425 266.15067505 -53.2118335 266.15877197 -54.42370605 266.16711426 C-55.50043579 266.15583496 -56.57716553 266.14455566 -57.68652344 266.13293457 C-58.62155701 266.13142647 -59.55659058 266.12991837 -60.5199585 266.12836456 C-63.77676043 265.4673439 -64.97947724 264.21639063 -67 261.625 C-67.62859945 256.1625872 -66.40742711 251.21248067 -65.09375 245.94921875 C-64.89348206 245.11917328 -64.69321411 244.28912781 -64.48687744 243.43392944 C-63.83172617 240.72499677 -63.16575792 238.01884339 -62.5 235.3125 C-62.04109388 233.42070922 -61.58309611 231.52869788 -61.12597656 229.63647461 C-60.19837441 225.79889079 -59.26747834 221.96213128 -58.33398438 218.12597656 C-56.43774303 210.32137849 -54.58865084 202.50583338 -52.75 194.6875 C-52.58571503 193.99060059 -52.42143005 193.29370117 -52.25216675 192.57568359 C-49.8627244 182.43467031 -47.58501105 172.27202259 -45.35839844 162.09399414 C-43.03800601 151.59398543 -40.47280924 141.15709379 -37.90802002 130.71481323 C-35.21124738 119.72671492 -32.64736855 108.72164885 -30.23828125 97.66625977 C-28.28566463 88.76616349 -26.16292724 79.9132358 -24 71.0625 C-21.55524624 61.0526412 -19.13257436 51.03973257 -16.8125 41 C-16.57088135 39.96198242 -16.3292627 38.92396484 -16.08032227 37.85449219 C-14.87121967 32.6107703 -13.73452361 27.36219842 -12.6953125 22.08203125 C-12.48285889 21.02773926 -12.27040527 19.97344727 -12.05151367 18.88720703 C-11.65478318 16.90055739 -11.27361388 14.91070808 -10.91137695 12.91748047 C-9.68176741 6.80221494 -7.49818987 -0.15117318 0 0 Z " fill="#3D3D3B" transform="translate(696,334.375)"/>
</svg>
